<svg width="150" height="150" viewBox="0 0 150 150" fill="none" xmlns="http://www.w3.org/2000/svg">
<circle cx="75" cy="75" r="13.5" stroke="black" stroke-width="5"/>
<rect x="35" y="76" width="2" height="21" rx="1" transform="rotate(-90 35 76)" fill="black"/>
<rect x="24" y="76" width="2" height="8" rx="1" transform="rotate(-90 24 76)" fill="black"/>
<rect x="36.9693" y="61.4614" width="2" height="21" rx="1" transform="rotate(-65 36.9693 61.4614)" fill="black"/>
<rect x="44.4264" y="48.6027" width="2" height="21" rx="1" transform="rotate(-50 44.4264 48.6027)" fill="black"/>
<rect x="36" y="41.5321" width="2" height="8" rx="1" transform="rotate(-50 36 41.5321)" fill="black"/>
<rect x="56.5" y="38.5262" width="2" height="21" rx="1" transform="rotate(-30 56.5 38.5262)" fill="black"/>
<rect x="74" y="35" width="2" height="21" rx="1" fill="black"/>
<rect x="74" y="24" width="2" height="8" rx="1" fill="black"/>
<rect x="88.5386" y="36.9694" width="2" height="21" rx="1" transform="rotate(25 88.5386 36.9694)" fill="black"/>
<rect x="101.397" y="44.4265" width="2" height="21" rx="1" transform="rotate(40 101.397 44.4265)" fill="black"/>
<rect x="108.468" y="35.9999" width="2" height="8" rx="1" transform="rotate(40 108.468 35.9999)" fill="black"/>
<rect x="111.474" y="56.5" width="2" height="21" rx="1" transform="rotate(60 111.474 56.5)" fill="black"/>
<rect x="115" y="74" width="2" height="21" rx="1" transform="rotate(90 115 74)" fill="black"/>
<rect x="126" y="74" width="2" height="8" rx="1" transform="rotate(90 126 74)" fill="black"/>
<rect x="33" y="84" width="83" height="7" rx="3.5" fill="black"/>
<path d="M74.4671 80.3357C74.7927 80.1305 75.2073 80.1305 75.5329 80.3357L81.5951 84.1538C82.4437 84.6883 82.0651 86 81.0622 86H68.9378C67.9349 86 67.5563 84.6883 68.4049 84.1538L74.4671 80.3357Z" fill="black"/>
</svg>
